<svg xmlns="http://www.w3.org/2000/svg" xmlns:xlink="http://www.w3.org/1999/xlink" width="1920" zoomAndPan="magnify" viewBox="0 0 1440 809.999993" height="1080" preserveAspectRatio="xMidYMid meet" version="1.0"><defs><g/></defs><rect x="-144" width="1728" fill="#707f62" y="-80.999999" height="971.999992" fill-opacity="1"/><rect x="-144" width="1728" fill="#ffffff" y="-80.999999" height="971.999992" fill-opacity="1"/><path fill="#707f62" d="M 257.890625 167.25 L 259.300781 158.3125 L 401.683594 158.3125 L 399.640625 167.25 C 399.640625 167.25 398.128906 167.601562 395.136719 168.304688 C 392.179688 168.972656 388.871094 171.121094 385.214844 174.78125 C 381.589844 178.40625 379.195312 184.546875 378.035156 193.222656 C 376.90625 201.914062 377.929688 214.019531 381.128906 229.539062 L 468.757812 634.796875 L 728.957031 229.539062 C 738.988281 214.019531 745.144531 201.914062 747.398438 193.222656 C 749.6875 184.546875 749.933594 178.40625 748.101562 174.78125 C 746.273438 171.121094 743.96875 168.972656 741.203125 168.304688 C 738.476562 167.601562 737.121094 167.25 737.121094 167.25 L 738.53125 158.3125 L 827.492188 158.3125 L 825.453125 167.25 C 825.453125 167.25 821.667969 168.164062 814.121094 169.996094 C 806.605469 171.789062 796.804688 176.890625 784.699219 185.339844 C 772.628906 193.785156 759.960938 208.527344 746.695312 229.539062 L 473.542969 655.347656 L 402.386719 655.347656 L 310.609375 229.539062 C 307.40625 214.019531 302.832031 201.914062 296.882812 193.222656 C 290.972656 184.546875 285.023438 178.40625 279.078125 174.78125 C 273.164062 171.121094 268.132812 168.972656 264.015625 168.304688 C 259.933594 167.601562 257.890625 167.25 257.890625 167.25 Z M 257.890625 167.25 " fill-opacity="1" fill-rule="nonzero"/><path fill="#707f62" d="M 648.777344 655.347656 L 1093.097656 176.117188 L 839.792969 176.117188 C 821.949219 176.117188 807.101562 178.863281 795.242188 184.351562 C 783.417969 189.84375 774.074219 196.019531 767.230469 202.863281 C 760.367188 209.671875 755.441406 215.8125 752.449219 221.304688 C 749.492188 226.792969 748.015625 229.539062 748.015625 229.539062 L 739.148438 229.539062 L 772.015625 158.3125 L 1180.722656 158.3125 L 736.402344 637.542969 L 989.707031 637.542969 C 1007.476562 637.542969 1022.3125 634.832031 1034.1875 629.378906 C 1046.046875 623.886719 1055.300781 617.730469 1061.917969 610.867188 C 1068.535156 604.023438 1073.320312 597.847656 1076.277344 592.355469 C 1079.265625 586.867188 1080.78125 584.121094 1080.78125 584.121094 L 1089.648438 584.121094 L 1056.78125 655.347656 Z M 648.777344 655.347656 " fill-opacity="1" fill-rule="nonzero"/><path fill="#ffffff" d="M 223.527344 343.300781 L 1141.628906 343.300781 L 1141.628906 469.800781 L 223.527344 469.800781 L 223.527344 343.300781 " fill-opacity="1" fill-rule="nonzero"/><g fill="#707f62" fill-opacity="1"><g transform="translate(279.646272, 434.465359)"><g><path d="M 29.71875 -13.234375 L 46.21875 -62.078125 L 46.734375 -63.578125 L 57.078125 -63.578125 L 56.125 -60.6875 L 34.375 0.703125 L 33.84375 2.1875 L 24.984375 2.1875 L 24.46875 0.796875 L 1.921875 -60.59375 L 0.796875 -63.578125 L 11.484375 -63.578125 L 11.921875 -62.171875 Z M 29.71875 -13.234375 "/></g></g></g><g fill="#707f62" fill-opacity="1"><g transform="translate(408.006381, 434.465359)"><g><path d="M 38.5 -53.921875 L 15.171875 -53.921875 L 15.171875 -35.25 L 39.015625 -35.25 L 38.84375 -32.875 L 38.40625 -27.625 L 38.234375 -25.609375 L 15.171875 -25.609375 L 15.171875 -7.453125 L 43.046875 -7.453125 L 42.875 -5.078125 L 42.4375 0.171875 L 42.265625 2.1875 L 4.828125 2.1875 L 4.828125 -63.578125 L 41.296875 -63.578125 L 41.125 -61.203125 L 40.6875 -55.9375 L 40.515625 -53.921875 Z M 38.5 -53.921875 "/></g></g></g><g fill="#707f62" fill-opacity="1"><g transform="translate(522.339437, 434.465359)"><g><path d="M 43.140625 -44.890625 C 43.140625 -36.535156 40.453125 -30.601562 35.078125 -27.09375 L 47.53125 -0.96875 L 48.921875 2.1875 L 37.703125 2.1875 L 37.09375 0.96875 L 25.34375 -23.765625 C 24.46875 -23.648438 23.5625 -23.5625 22.625 -23.5 C 21.6875 -23.4375 20.722656 -23.40625 19.734375 -23.40625 L 15.171875 -23.40625 L 15.171875 2.1875 L 4.828125 2.1875 L 4.828125 -63.578125 L 19.734375 -63.578125 C 27.328125 -63.578125 32.9375 -62.347656 36.5625 -59.890625 C 40.945312 -56.910156 43.140625 -51.910156 43.140625 -44.890625 Z M 15.171875 -54.359375 L 15.171875 -32.625 L 19.296875 -32.625 C 23.972656 -32.625 27.421875 -33.53125 29.640625 -35.34375 C 31.742188 -36.976562 32.796875 -40.046875 32.796875 -44.546875 C 32.796875 -46.472656 32.53125 -48.078125 32 -49.359375 C 31.476562 -50.648438 30.691406 -51.660156 29.640625 -52.390625 C 28.585938 -53.117188 27.210938 -53.628906 25.515625 -53.921875 C 24.578125 -54.097656 23.597656 -54.210938 22.578125 -54.265625 C 21.554688 -54.328125 20.460938 -54.359375 19.296875 -54.359375 Z M 15.171875 -54.359375 "/></g></g></g><g fill="#707f62" fill-opacity="1"><g transform="translate(641.932632, 434.465359)"><g><path d="M 5.34375 -63.578125 L 45.765625 -63.578125 L 46.125 -61.734375 L 47 -56.90625 L 47.09375 -56.125 L 46.65625 -55.328125 L 14.375 -7.015625 L 49.625 -7.015625 L 49.890625 -5.171875 L 50.59375 -0.34375 L 50.953125 2.1875 L 2.546875 2.1875 L 2.1875 0.34375 L 1.3125 -4.46875 L 1.234375 -5.265625 L 1.671875 -6.046875 L 33.84375 -54.359375 L 3.25 -54.359375 L 3.25 -56.5625 L 3.15625 -61.375 L 3.15625 -63.578125 Z M 5.34375 -63.578125 "/></g></g></g><g fill="#707f62" fill-opacity="1"><g transform="translate(763.980574, 434.465359)"><g><path d="M 40.6875 -14.03125 L 16.84375 -14.03125 L 11.75 0.703125 L 11.21875 2.1875 L 0.796875 2.1875 L 1.84375 -0.703125 L 24.03125 -62.078125 L 24.546875 -63.578125 L 32.96875 -63.578125 L 33.5 -62.171875 L 56.46875 -0.796875 L 57.609375 2.1875 L 46.46875 2.1875 L 45.953125 0.703125 Z M 19.8125 -22.796875 L 37.625 -22.796875 L 28.5 -48.046875 Z M 19.8125 -22.796875 "/></g></g></g><g fill="#707f62" fill-opacity="1"><g transform="translate(893.042065, 434.465359)"><g><path d="M 44.546875 1.234375 L 13.671875 -46.03125 L 14.03125 0 L 14.03125 2.1875 L 4.125 2.1875 L 4.125 -63.578125 L 13.9375 -63.578125 L 14.5625 -62.609375 L 45.328125 -15.34375 L 45.078125 -61.375 L 45.078125 -63.578125 L 54.984375 -63.578125 L 54.984375 2.1875 L 45.15625 2.1875 Z M 44.546875 1.234375 "/></g></g></g><g fill="#707f62" fill-opacity="1"><g transform="translate(1022.366551, 434.465359)"><g><path d="M 31.5625 -63.921875 C 40.800781 -63.921875 47.785156 -61.054688 52.515625 -55.328125 C 57.253906 -49.597656 59.625 -41.328125 59.625 -30.515625 C 59.625 -20.398438 56.992188 -12.390625 51.734375 -6.484375 C 46.359375 -0.460938 39.632812 2.546875 31.5625 2.546875 C 23.09375 2.546875 16.457031 0.175781 11.65625 -4.5625 C 6.21875 -10.175781 3.5 -18.445312 3.5 -29.375 C 3.5 -40.25 6.160156 -48.722656 11.484375 -54.796875 C 16.859375 -60.878906 23.550781 -63.921875 31.5625 -63.921875 Z M 19.203125 -11.84375 C 21.953125 -8.6875 26.070312 -7.109375 31.5625 -7.109375 C 36.65625 -7.109375 40.863281 -9.125 44.1875 -13.15625 C 47.582031 -17.363281 49.28125 -23.5 49.28125 -31.5625 C 49.28125 -39.570312 47.5 -45.535156 43.9375 -49.453125 C 41.125 -52.671875 37 -54.28125 31.5625 -54.28125 C 28.988281 -54.28125 26.679688 -53.78125 24.640625 -52.78125 C 22.597656 -51.789062 20.726562 -50.242188 19.03125 -48.140625 C 15.582031 -43.929688 13.859375 -37.765625 13.859375 -29.640625 C 13.859375 -25.609375 14.3125 -22.097656 15.21875 -19.109375 C 16.125 -16.128906 17.453125 -13.707031 19.203125 -11.84375 Z M 19.203125 -11.84375 "/></g></g></g></svg>